<?xml version="1.0" encoding="UTF-8" standalone="no"?>
<!DOCTYPE svg PUBLIC "-//W3C//DTD SVG 1.1//EN" "http://www.w3.org/Graphics/SVG/1.1/DTD/svg11.dtd">
<svg version="1.1" xmlns="http://www.w3.org/2000/svg" xmlns:xlink="http://www.w3.org/1999/xlink" preserveAspectRatio="xMidYMid meet" viewBox="0 0 190 190" width="190" height="190"><defs><path d="M101.33 22.34L104.34 22.65L107.31 23.07L110.25 23.61L113.14 24.27L115.99 25.03L118.8 25.91L121.55 26.89L124.26 27.97L126.91 29.16L129.51 30.44L132.05 31.82L134.53 33.3L136.94 34.86L139.29 36.52L141.58 38.26L143.79 40.09L145.93 42L147.99 43.99L149.98 46.06L151.89 48.2L153.72 50.41L155.46 52.7L155.76 53.13L158.36 53.98L161.16 54.98L163.85 56.03L166.42 57.12L168.89 58.26L171.23 59.44L173.46 60.67L175.56 61.93L177.53 63.24L179.37 64.58L181.08 65.97L182.65 67.39L184.07 68.84L185.36 70.33L186.49 71.85L187.47 73.41L188.3 74.99L188.97 76.61L189.48 78.25L189.82 79.92L190 81.62L190 83.33L189.83 85.03L189.5 86.72L189 88.39L188.34 90.06L187.53 91.7L186.56 93.34L185.44 94.95L184.17 96.55L182.76 98.12L181.2 99.68L179.51 101.21L177.69 102.71L175.73 104.19L173.64 105.64L171.43 107.06L169.1 108.45L168.95 108.53L168.93 108.69L166.62 109.82L163.76 111.12L160.8 112.39L157.74 113.61L154.57 114.79L151.3 115.92L147.94 117L145.46 117.75L146.08 115.24L146.62 112.62L147.06 109.95L147.41 107.25L147.67 104.52L147.82 101.76L147.87 98.97L147.82 96.18L147.67 93.41L147.41 90.68L147.06 87.98L146.62 85.32L146.08 82.69L145.44 80.11L144.72 77.56L143.91 75.06L143.01 72.61L142.03 70.2L140.97 67.84L139.83 65.54L138.6 63.29L137.31 61.1L135.94 58.97L134.49 56.89L132.98 54.89L131.4 52.94L129.76 51.07L128.05 49.27L126.27 47.53L124.44 45.88L122.55 44.3L120.6 42.79L118.6 41.37L116.55 40.04L114.45 38.78L112.3 37.62L110.1 36.54L107.86 35.56L105.58 34.67L103.26 33.88L100.89 33.19L98.5 32.59L96.07 32.1L93.6 31.72L91.11 31.44L88.59 31.27L86.04 31.22L83.5 31.27L80.98 31.44L78.48 31.72L76.02 32.1L73.59 32.59L71.19 33.19L68.83 33.88L66.51 34.67L64.23 35.56L61.99 36.54L59.79 37.62L57.64 38.78L55.54 40.04L53.49 41.37L51.48 42.79L49.54 44.3L47.65 45.88L45.82 47.53L44.04 49.27L42.33 51.07L40.69 52.94L39.11 54.89L37.59 56.89L36.15 58.97L34.78 61.1L33.48 63.29L32.26 65.54L31.12 67.84L30.06 70.2L29.08 72.61L28.18 75.06L27.37 77.56L27.2 78.16L25.38 78.13L23.51 78.16L22.9 78.2L23.48 76.02L24.36 73.21L25.34 70.45L26.42 67.74L27.6 65.09L28.89 62.49L30.27 59.95L31.74 57.47L33.31 55.05L34.96 52.7L36.7 50.41L38.53 48.2L40.44 46.06L42.43 43.99L44.49 42L46.63 40.09L48.84 38.26L51.13 36.52L53.48 34.86L55.89 33.3L58.37 31.82L60.91 30.44L63.51 29.16L66.16 27.97L68.87 26.89L71.62 25.91L74.43 25.03L77.28 24.27L80.17 23.61L83.11 23.07L86.08 22.65L89.09 22.34L92.13 22.16L95.21 22.09L98.29 22.16L101.33 22.34ZM161.53 62.49L162.82 65.09L164 67.74L165.08 70.45L166.06 73.21L166.94 76.02L167.7 78.87L168.35 81.77L168.89 84.71L169.32 87.68L169.62 90.69L169.81 93.74L169.84 95.07L170.94 94.26L172.36 93.11L173.68 91.94L174.89 90.76L176 89.56L176.99 88.34L177.86 87.11L178.62 85.86L179.26 84.61L179.77 83.34L180.16 82.06L180.43 80.77L180.56 79.47L180.56 78.17L180.43 76.88L180.16 75.6L179.77 74.35L179.25 73.11L178.61 71.9L177.85 70.72L176.97 69.56L175.97 68.42L174.86 67.31L173.64 66.23L172.32 65.17L170.89 64.15L169.35 63.15L167.72 62.18L165.99 61.25L164.17 60.35L162.25 59.48L160.25 58.64L159.12 58.21L160.15 59.95L161.53 62.49Z" id="aby6nnM"></path><path d="M43.38 83.32L42.94 85.99L42.59 88.68L42.33 91.42L42.18 94.18L42.13 96.97L42.18 99.76L42.33 102.52L42.59 105.25L42.94 107.95L43.38 110.62L43.92 113.24L44.56 115.83L45.28 118.37L46.09 120.88L46.99 123.33L47.97 125.74L49.03 128.09L50.17 130.4L51.4 132.65L52.69 134.84L54.06 136.97L55.51 139.04L57.02 141.05L58.6 142.99L60.24 144.87L61.95 146.67L63.73 148.4L65.56 150.06L67.45 151.64L69.4 153.14L71.4 154.56L73.45 155.9L75.55 157.15L77.7 158.32L79.9 159.39L82.14 160.38L84.42 161.26L86.74 162.06L89.11 162.75L91.5 163.34L93.93 163.83L96.4 164.22L98.89 164.5L101.41 164.66L103.96 164.72L106.5 164.66L109.02 164.5L111.52 164.22L113.98 163.83L116.41 163.34L118.81 162.75L121.17 162.06L123.49 161.26L125.77 160.38L128.01 159.39L130.21 158.32L132.36 157.15L134.46 155.9L136.51 154.56L138.52 153.14L140.46 151.64L142.35 150.06L144.18 148.4L145.96 146.67L147.67 144.87L149.31 142.99L150.89 141.05L152.41 139.04L153.85 136.97L155.22 134.84L156.52 132.65L157.74 130.4L158.88 128.09L159.94 125.74L160.92 123.33L161.82 120.88L162.63 118.37L162.8 117.78L164.62 117.81L166.49 117.77L167.1 117.74L166.52 119.92L165.64 122.73L164.66 125.48L163.58 128.19L162.4 130.85L161.11 133.45L159.73 135.99L158.26 138.47L156.69 140.89L155.04 143.24L153.3 145.52L151.47 147.74L149.56 149.88L147.57 151.95L145.51 153.94L143.37 155.85L141.16 157.67L138.87 159.42L136.52 161.07L134.11 162.64L131.63 164.12L129.09 165.5L126.49 166.78L123.84 167.97L121.13 169.05L118.38 170.03L115.57 170.91L112.72 171.67L109.83 172.32L106.89 172.86L103.92 173.29L100.91 173.6L97.87 173.78L94.79 173.84L91.71 173.78L88.67 173.6L85.66 173.29L82.69 172.86L79.75 172.32L76.86 171.67L74.01 170.91L71.2 170.03L68.45 169.05L65.74 167.97L63.09 166.78L60.49 165.5L57.95 164.12L55.47 162.64L53.06 161.07L50.71 159.42L48.42 157.67L46.21 155.85L44.07 153.94L42.01 151.95L40.02 149.88L38.11 147.74L36.28 145.52L34.54 143.24L34.24 142.81L31.64 141.95L28.84 140.95L26.15 139.91L23.58 138.81L21.11 137.68L18.77 136.49L16.54 135.27L14.44 134L12.47 132.7L10.63 131.35L8.92 129.97L7.35 128.55L5.93 127.1L4.64 125.61L3.51 124.08L2.53 122.53L1.7 120.94L1.03 119.33L0.52 117.68L0.18 116.01L0 114.31L0 112.61L0.17 110.91L0.5 109.22L1 107.55L1.66 105.88L2.47 104.23L3.44 102.6L4.56 100.99L5.83 99.39L7.24 97.81L8.8 96.26L10.49 94.73L12.31 93.23L14.27 91.75L16.36 90.3L18.57 88.88L20.9 87.49L21.05 87.41L21.07 87.25L23.38 86.12L26.24 84.81L29.2 83.55L32.26 82.33L35.43 81.15L38.7 80.02L42.06 78.93L44.54 78.19L43.92 80.7L43.38 83.32ZM17.64 102.83L16.32 103.99L15.11 105.18L14 106.38L13.01 107.6L12.14 108.83L11.38 110.07L10.74 111.33L10.23 112.6L9.84 113.88L9.57 115.17L9.44 116.46L9.44 117.77L9.57 119.06L9.84 120.34L10.23 121.59L10.75 122.82L11.39 124.03L12.15 125.22L13.03 126.38L14.03 127.52L15.14 128.63L16.36 129.71L17.68 130.77L19.11 131.79L20.65 132.79L22.28 133.76L24.01 134.69L25.83 135.59L27.75 136.46L29.75 137.29L30.88 137.73L29.85 135.99L28.47 133.45L27.18 130.85L26 128.19L24.92 125.48L23.94 122.73L23.06 119.92L22.3 117.07L21.65 114.17L21.11 111.23L20.68 108.26L20.38 105.24L20.19 102.2L20.16 100.87L19.06 101.68L17.64 102.83Z" id="buJDT7bBD"></path></defs><g><g><g><g><use xlink:href="#aby6nnM" opacity="1" fill="#f25001" fill-opacity="1"></use></g><g><use xlink:href="#buJDT7bBD" opacity="1" fill="#f17400" fill-opacity="1"></use></g></g></g></g></svg>